<svg xmlns="http://www.w3.org/2000/svg" width="1600" height="940" viewBox="0 0 1600 940"><defs><linearGradient id="earth" x2="0.7" y2="1"><stop stop-color="#407ca4"/><stop offset="1" stop-color="#0b1c30"/></linearGradient><linearGradient id="hull" x2="1" y2="1"><stop stop-color="#e1e1d6"/><stop offset="1" stop-color="#6b7d86"/></linearGradient><g id="ship"><path d="M-28-70H28L40 48 22 76H-22L-40 48Z" fill="url(#hull)"/><rect x="-21" y="-38" width="42" height="74" fill="#273641"/><path d="M-65-15H-37V50H-65ZM37-15H65V50H37Z" fill="#a6ada8"/><path d="M-90 9H-67V59H-90ZM67 9H90V59H67Z" fill="#1b2937" stroke="#718993"/><path d="M-30 71L-41 94H-9L-15 71ZM15 71L9 94H41L30 71Z" fill="#566b77"/><path d="M-29-52H29" stroke="#d8a468" stroke-width="9"/><circle cy="-65" r="12" fill="#15232c"/></g></defs><rect width="1600" height="940" fill="#080e15"/><text x="60" y="66" fill="#ebf0ec" font-family="Segoe UI" font-size="34" letter-spacing="8">ORBITAL</text><text x="1540" y="62" fill="#879aa6" text-anchor="end" font-family="Consolas" font-size="14">01 / VISUAL DIRECTION / 2026.09.06</text><path d="M60 92H1540" stroke="#30414d"/><g font-family="Consolas" font-size="15" fill="#a4b7c2"><text x="60" y="132">01 / DAY — REAL EARTH SCALE</text><text x="570" y="132">02 / NIGHT — READABLE INDUSTRIAL HULL</text><text x="1080" y="132">03 / VEHICLE — FUNCTION BEFORE ORNAMENT</text></g><g><svg x="60" y="155" width="460" height="360" viewBox="0 0 460 360"><rect width="460" height="360" fill="#070b12"/><circle cx="50" cy="650" r="555" fill="url(#earth)" stroke="#73d5f9" stroke-width="4"/><path d="M0 220Q220 110 460 170" fill="none" stroke="#d0e6e6" opacity=".35" stroke-width="21"/><use href="#ship" transform="translate(290 169) rotate(-32) scale(.9)"/></svg><svg x="570" y="155" width="460" height="360" viewBox="0 0 460 360"><rect width="460" height="360" fill="#03070d"/><circle cx="20" cy="650" r="555" fill="#0c1924" stroke="#497a99" stroke-width="3"/><use href="#ship" transform="translate(260 163) rotate(-32) scale(.9)" opacity=".6"/><circle cx="199" cy="168" r="3" fill="#8ae5ed"/><circle cx="316" cy="196" r="3" fill="#d7a76d"/></svg><svg x="1080" y="155" width="460" height="360" viewBox="0 0 460 360"><rect width="460" height="360" fill="#101b24"/><path d="M230 20V335M30 180H430" stroke="#2c3e49" stroke-dasharray="4 7"/><use href="#ship" transform="translate(230 180) scale(1.45)"/></svg></g><g font-family="Segoe UI" font-size="18" fill="#b1bdc3"><text x="60" y="552">Atmospheric limb / restrained exposure</text><text x="570" y="552">Navigation lamps / subtle cinematic fill</text><text x="1080" y="552">12 m tug / tanks / radiators / 4 nozzles</text></g><g><rect x="60" y="605" width="720" height="265" fill="#0e1821" stroke="#2b3b48"/><text x="84" y="641" font-family="Consolas" font-size="14" fill="#dca865">04 / MISSION CONTROL</text><text x="84" y="686" font-family="Segoe UI" font-size="30" fill="#e4edee">Dünya yörüngesi</text><text x="84" y="720" font-family="Consolas" font-size="16" fill="#9cb0ba">İRTİFA       YÖRÜNGE HIZI       BAĞLANTI</text><text x="84" y="760" font-family="Consolas" font-size="26" fill="#e4edee">400 km      7.67 km/s          YEREL</text><path d="M84 790H752" stroke="#334957"/><text x="84" y="833" font-family="Segoe UI" font-size="16" fill="#9cb0ba">Wide margins · sparse panels · Turkish labels · SI telemetry</text><rect x="810" y="605" width="730" height="265" fill="#0e1821" stroke="#2b3b48"/><text x="834" y="641" font-family="Consolas" font-size="14" fill="#dca865">05 / LATER COMBAT — REFERENCE ONLY / SESSION 4</text><path d="M865 777L1340 720" stroke="#c7e8ef" stroke-width="2" stroke-dasharray="3 11"/><circle cx="1360" cy="717" r="28" fill="none" stroke="#dba364"/><path d="M1343 680H1322V700M1377 680H1398V700M1322 733V753H1343M1377 753H1398V733" fill="none" stroke="#dba364"/><text x="834" y="833" font-family="Segoe UI" font-size="16" fill="#9cb0ba">Readable target · bounded effects · sensor-generated feedback</text></g></svg>
